<?xml version="1.0" standalone="no"?>
<!DOCTYPE svg PUBLIC "-//W3C//DTD SVG 20010904//EN"
 "http://www.w3.org/TR/2001/REC-SVG-20010904/DTD/svg10.dtd">
<svg version="1.0" xmlns="http://www.w3.org/2000/svg"
 width="512.000000pt" height="512.000000pt" viewBox="0 0 512.000000 512.000000"
 preserveAspectRatio="xMidYMid meet">
<metadata>
Created by potrace 1.11, written by Peter Selinger 2001-2013
</metadata>
<g transform="translate(0.000000,512.000000) scale(0.100000,-0.100000)"
fill="#000000" stroke="none">
<path d="M2389 5056 c-2 -2 -35 -7 -74 -10 -38 -4 -81 -8 -95 -11 -14 -2 -43
-7 -65 -10 -44 -7 -70 -13 -70 -15 0 -1 -15 -3 -34 -6 -19 -2 -53 -9 -75 -16
-23 -6 -50 -13 -61 -15 -10 -2 -22 -7 -25 -11 -3 -4 -21 -8 -40 -10 -19 -1
-37 -6 -40 -10 -3 -4 -16 -9 -30 -10 -14 -2 -30 -8 -36 -13 -7 -6 -22 -12 -35
-14 -23 -5 -78 -27 -112 -46 -11 -6 -21 -8 -24 -5 -3 3 -10 1 -17 -5 -6 -5
-63 -35 -127 -68 -97 -49 -272 -152 -289 -171 -3 -3 -27 -21 -55 -40 -60 -42
-75 -54 -184 -151 -111 -99 -222 -216 -306 -325 -11 -14 -26 -32 -33 -39 -6
-8 -12 -16 -12 -20 0 -3 -4 -11 -10 -18 -57 -70 -128 -185 -193 -312 -50 -97
-105 -220 -113 -250 -1 -5 -7 -23 -14 -40 -6 -16 -11 -31 -11 -32 0 -2 -6 -18
-14 -37 -8 -18 -11 -36 -8 -40 4 -3 0 -6 -7 -6 -7 0 -11 -3 -8 -6 4 -3 2 -20
-4 -37 -20 -64 -46 -167 -42 -167 2 0 0 -10 -5 -23 -5 -12 -11 -42 -15 -67 -3
-25 -9 -56 -12 -70 -3 -14 -7 -54 -9 -90 -2 -36 -5 -65 -5 -65 -12 0 -16 -388
-5 -435 3 -14 8 -50 11 -80 2 -30 7 -66 9 -80 2 -14 7 -43 11 -65 12 -80 45
-209 57 -224 8 -9 8 -12 1 -8 -10 6 1 -42 23 -93 8 -19 8 -20 18 -55 4 -16 12
-36 18 -42 5 -7 6 -13 2 -13 -4 0 -2 -7 5 -15 7 -8 9 -15 4 -15 -5 0 -4 -4 1
-8 9 -6 33 -61 38 -87 1 -5 4 -12 7 -15 3 -3 20 -36 38 -75 58 -121 185 -335
204 -343 5 -2 8 -10 8 -18 0 -8 5 -14 10 -14 6 0 10 -5 10 -10 0 -6 8 -18 18
-28 30 -32 62 -72 57 -72 -8 0 57 -70 182 -194 136 -136 179 -176 188 -176 3
0 20 -13 38 -30 18 -16 38 -30 45 -30 7 0 10 -4 7 -10 -3 -5 1 -10 9 -10 8 0
21 -6 29 -14 41 -42 368 -231 379 -220 3 2 11 -2 18 -11 7 -8 21 -15 31 -15
10 0 21 -5 24 -10 3 -6 15 -10 26 -10 10 0 19 -4 19 -10 0 -5 3 -9 8 -9 4 1
10 0 15 -1 4 -1 10 -4 15 -5 4 -1 23 -8 42 -16 19 -7 38 -12 43 -11 4 1 7 -3
7 -9 0 -5 5 -7 10 -4 6 4 16 2 23 -3 7 -5 26 -13 42 -17 17 -5 35 -9 40 -11
64 -18 224 -56 255 -60 19 -2 46 -7 60 -10 119 -26 463 -37 620 -21 143 15
231 30 365 62 11 3 35 8 53 11 17 3 32 10 32 14 0 5 8 7 18 6 9 -2 24 0 32 4
18 9 110 40 130 45 8 2 28 10 44 19 16 8 33 13 38 10 4 -3 8 0 8 6 0 6 4 9 9
5 5 -3 12 -1 16 5 4 6 11 8 16 5 5 -4 9 -2 9 3 0 5 10 13 23 17 12 4 24 8 27
9 13 5 169 87 200 105 19 12 50 29 68 38 17 9 32 20 32 25 0 4 4 8 10 8 11 0
111 69 122 85 4 5 8 6 8 1 0 -5 14 5 30 22 17 18 32 31 33 29 12 -9 284 252
357 342 19 24 47 58 63 75 15 17 27 34 27 38 0 3 6 13 14 21 20 19 106 150
154 233 49 85 154 306 154 324 0 3 4 11 10 17 6 7 7 13 4 13 -4 0 0 12 8 27
14 25 71 201 80 249 3 10 10 42 16 69 6 28 14 60 16 73 2 12 6 34 9 50 9 43
15 83 21 142 3 30 8 71 10 90 5 52 6 368 0 388 -2 9 -7 55 -11 102 -3 46 -8
87 -10 91 -3 3 -7 21 -9 40 -3 19 -7 41 -9 49 -2 8 -7 36 -12 63 -4 26 -10 47
-14 47 -3 0 -6 13 -7 29 -1 16 -5 37 -9 47 -4 11 -10 30 -12 44 -2 13 -9 30
-15 37 -5 7 -7 17 -3 23 3 5 1 10 -6 10 -7 0 -10 3 -6 6 3 4 0 19 -9 35 -8 16
-14 31 -14 34 1 14 -13 55 -19 55 -4 0 -7 8 -8 18 -1 9 -16 49 -34 87 -18 39
-34 72 -34 75 -6 22 -26 59 -35 65 -5 3 -8 11 -5 16 4 5 1 9 -4 9 -6 0 -11 4
-11 9 0 20 -127 226 -162 265 -10 11 -18 23 -18 28 0 7 -10 21 -55 73 -11 13
-31 38 -45 56 -26 36 -243 255 -297 302 -18 15 -38 27 -45 27 -6 0 -8 3 -5 7
7 6 -21 30 -36 31 -5 0 -16 9 -25 20 -35 39 -270 185 -409 253 -79 39 -150 72
-156 73 -7 1 -22 8 -34 14 -13 7 -23 10 -23 7 0 -3 -10 0 -22 7 -13 7 -29 11
-35 10 -7 -2 -13 2 -13 8 0 5 -8 10 -19 10 -10 0 -35 7 -55 15 -20 8 -36 12
-36 9 0 -4 -7 -1 -15 6 -8 7 -15 10 -15 6 0 -3 -12 -1 -27 5 -16 7 -37 12 -48
13 -11 1 -26 5 -32 9 -7 5 -13 6 -13 3 0 -3 -12 -1 -27 5 -15 6 -44 12 -63 14
-19 3 -46 7 -60 10 -14 3 -45 8 -70 11 -25 3 -56 7 -70 10 -28 6 -446 15 -451
10z"/>
</g>
</svg>
